<svg xmlns="http://www.w3.org/2000/svg" width="810" viewBox="0 0 810 810" height="810" version="1.0"><defs><clipPath id="a"><path d="M 0 151 L 810 151 L 810 694.179688 L 0 694.179688 Z M 0 151"/></clipPath><clipPath id="b"><path d="M 44 115.929688 L 758 115.929688 L 758 475 L 44 475 Z M 44 115.929688"/></clipPath></defs><path fill="#FFF" d="M-81 -81H891V891H-81z"/><path fill="#FFF" d="M-81 -81H891V891H-81z"/><path fill="#FFF" d="M-81 -81H891V891H-81z"/><g clip-path="url(#a)"><path d="M 420.425781 536.183594 C 414.992188 541.597656 407.667969 544.625 400.011719 544.625 C 392.304688 544.625 384.980469 541.597656 379.566406 536.183594 L 3.136719 159.613281 C 1.992188 164.261719 0.308594 168.710938 0.308594 173.75 L 0.308594 636.34375 C 0.308594 668.308594 26.167969 694.191406 58.128906 694.191406 L 751.886719 694.191406 C 783.71875 694.191406 809.691406 668.3125 809.691406 636.34375 L 809.691406 173.75 C 809.691406 165.796875 808.007812 158.222656 805.144531 151.402344 Z M 420.425781 536.183594"/></g><g clip-path="url(#b)"><path d="M 400.011719 474.863281 L 757.660156 117.09375 C 755.648438 116.878906 753.929688 115.929688 751.886719 115.929688 L 58.128906 115.929688 C 53.09375 115.929688 48.660156 117.570312 44.015625 118.746094 Z M 400.011719 474.863281"/></g></svg>