<svg xmlns="http://www.w3.org/2000/svg" width="810" viewBox="0 0 810 810" height="810" version="1.0"><defs><clipPath id="a"><path d="M 1 126.5625 L 809 126.5625 L 809 436 L 1 436 Z M 1 126.5625"/></clipPath><clipPath id="b"><path d="M 1 439 L 809 439 L 809 683.8125 L 1 683.8125 Z M 1 439"/></clipPath></defs><path fill="#FFF" d="M-81 -81H891V891H-81z"/><path fill="#FFF" d="M-81 -81H891V891H-81z"/><path d="M 810 229.300781 L 810 582.089844 L 536.929688 409.339844 Z M 810 229.300781"/><path d="M 273.070312 409.339844 L 0 582.089844 L 0 229.300781 Z M 273.070312 409.339844"/><g clip-path="url(#a)"><path d="M 808.480469 169.671875 C 804.683594 145.40625 784.636719 126.5625 759.375 126.5625 L 50.625 126.5625 C 25.363281 126.5625 5.316406 145.40625 1.519531 169.671875 L 405 435.683594 Z M 808.480469 169.671875"/></g><g clip-path="url(#b)"><path d="M 418.921875 487.152344 C 414.667969 489.941406 409.859375 491.308594 405 491.308594 C 400.140625 491.308594 395.332031 489.941406 391.078125 487.152344 L 319.445312 439.890625 L 1.621094 641.054688 C 5.519531 665.121094 25.464844 683.8125 50.625 683.8125 L 759.375 683.8125 C 784.535156 683.8125 804.480469 665.121094 808.378906 641.054688 L 490.554688 439.941406 Z M 418.921875 487.152344"/></g></svg>