<svg xmlns="http://www.w3.org/2000/svg" width="810" viewBox="0 0 810 810" height="810" version="1.0"><path fill="#FFF" d="M-81 -81H891V891H-81z"/><path fill="#FFF" d="M-81 -81H891V891H-81z"/><path fill="#0077B5" d="M 121.5 0 L 688.5 0 C 690.488281 0 692.476562 0.0507812 694.460938 0.148438 C 696.449219 0.242188 698.429688 0.390625 700.410156 0.585938 C 702.386719 0.78125 704.359375 1.023438 706.328125 1.316406 C 708.292969 1.605469 710.253906 1.945312 712.203125 2.335938 C 714.152344 2.722656 716.09375 3.15625 718.023438 3.640625 C 719.949219 4.125 721.867188 4.65625 723.769531 5.230469 C 725.671875 5.808594 727.558594 6.433594 729.433594 7.101562 C 731.304688 7.773438 733.160156 8.488281 734.996094 9.25 C 736.832031 10.007812 738.648438 10.816406 740.449219 11.664062 C 742.246094 12.515625 744.019531 13.410156 745.773438 14.347656 C 747.527344 15.285156 749.257812 16.265625 750.964844 17.285156 C 752.667969 18.308594 754.347656 19.371094 756 20.476562 C 757.65625 21.582031 759.28125 22.726562 760.878906 23.910156 C 762.472656 25.09375 764.042969 26.316406 765.578125 27.578125 C 767.117188 28.839844 768.621094 30.140625 770.09375 31.472656 C 771.566406 32.808594 773.007812 34.179688 774.414062 35.585938 C 775.820312 36.992188 777.191406 38.433594 778.527344 39.90625 C 779.859375 41.378906 781.160156 42.882812 782.421875 44.421875 C 783.683594 45.957031 784.90625 47.527344 786.089844 49.121094 C 787.273438 50.71875 788.417969 52.34375 789.523438 54 C 790.628906 55.652344 791.691406 57.332031 792.714844 59.035156 C 793.734375 60.742188 794.714844 62.472656 795.652344 64.226562 C 796.589844 65.980469 797.484375 67.753906 798.335938 69.550781 C 799.183594 71.351562 799.992188 73.167969 800.75 75.003906 C 801.511719 76.839844 802.226562 78.695312 802.898438 80.566406 C 803.566406 82.441406 804.191406 84.328125 804.769531 86.230469 C 805.34375 88.132812 805.875 90.050781 806.359375 91.976562 C 806.839844 93.90625 807.277344 95.847656 807.664062 97.796875 C 808.054688 99.746094 808.394531 101.707031 808.683594 103.671875 C 808.976562 105.640625 809.21875 107.613281 809.414062 109.589844 C 809.609375 111.570312 809.757812 113.550781 809.855469 115.539062 C 809.949219 117.523438 810 119.511719 810 121.5 L 810 688.5 C 810 690.488281 809.949219 692.476562 809.855469 694.460938 C 809.757812 696.449219 809.609375 698.429688 809.414062 700.410156 C 809.21875 702.386719 808.976562 704.359375 808.683594 706.328125 C 808.394531 708.292969 808.054688 710.253906 807.664062 712.203125 C 807.277344 714.152344 806.839844 716.09375 806.359375 718.023438 C 805.875 719.949219 805.34375 721.867188 804.769531 723.769531 C 804.191406 725.671875 803.566406 727.558594 802.898438 729.433594 C 802.226562 731.304688 801.511719 733.160156 800.75 734.996094 C 799.992188 736.832031 799.183594 738.652344 798.335938 740.449219 C 797.484375 742.246094 796.589844 744.019531 795.652344 745.773438 C 794.714844 747.527344 793.734375 749.257812 792.714844 750.964844 C 791.691406 752.667969 790.628906 754.347656 789.523438 756 C 788.417969 757.65625 787.273438 759.28125 786.089844 760.878906 C 784.90625 762.476562 783.683594 764.042969 782.421875 765.578125 C 781.160156 767.117188 779.859375 768.621094 778.527344 770.09375 C 777.191406 771.566406 775.820312 773.007812 774.414062 774.414062 C 773.007812 775.820312 771.566406 777.191406 770.09375 778.527344 C 768.621094 779.859375 767.117188 781.160156 765.578125 782.421875 C 764.042969 783.683594 762.472656 784.90625 760.878906 786.089844 C 759.28125 787.273438 757.65625 788.417969 756 789.523438 C 754.347656 790.628906 752.667969 791.691406 750.964844 792.714844 C 749.257812 793.734375 747.527344 794.714844 745.773438 795.652344 C 744.019531 796.589844 742.246094 797.484375 740.449219 798.335938 C 738.648438 799.183594 736.832031 799.992188 734.996094 800.75 C 733.160156 801.511719 731.304688 802.226562 729.433594 802.898438 C 727.558594 803.566406 725.671875 804.191406 723.769531 804.769531 C 721.867188 805.34375 719.949219 805.875 718.023438 806.359375 C 716.09375 806.84375 714.152344 807.277344 712.203125 807.664062 C 710.253906 808.054688 708.292969 808.394531 706.328125 808.683594 C 704.359375 808.976562 702.386719 809.21875 700.410156 809.414062 C 698.429688 809.609375 696.449219 809.757812 694.460938 809.855469 C 692.476562 809.953125 690.488281 810 688.5 810 L 121.5 810 C 119.511719 810 117.523438 809.953125 115.539062 809.855469 C 113.550781 809.757812 111.570312 809.609375 109.589844 809.414062 C 107.613281 809.21875 105.640625 808.976562 103.671875 808.683594 C 101.707031 808.394531 99.746094 808.054688 97.796875 807.664062 C 95.847656 807.277344 93.90625 806.84375 91.976562 806.359375 C 90.050781 805.875 88.132812 805.34375 86.230469 804.769531 C 84.328125 804.191406 82.441406 803.566406 80.566406 802.898438 C 78.695312 802.226562 76.839844 801.511719 75.003906 800.75 C 73.167969 799.992188 71.347656 799.183594 69.550781 798.335938 C 67.753906 797.484375 65.980469 796.589844 64.226562 795.652344 C 62.472656 794.714844 60.742188 793.734375 59.035156 792.714844 C 57.332031 791.691406 55.652344 790.628906 54 789.523438 C 52.34375 788.417969 50.71875 787.273438 49.121094 786.089844 C 47.527344 784.90625 45.957031 783.683594 44.421875 782.421875 C 42.882812 781.160156 41.378906 779.859375 39.90625 778.527344 C 38.433594 777.191406 36.992188 775.820312 35.585938 774.414062 C 34.179688 773.007812 32.808594 771.566406 31.472656 770.09375 C 30.140625 768.621094 28.839844 767.117188 27.578125 765.578125 C 26.316406 764.042969 25.09375 762.472656 23.910156 760.878906 C 22.726562 759.28125 21.582031 757.65625 20.476562 756 C 19.371094 754.347656 18.308594 752.667969 17.285156 750.964844 C 16.265625 749.257812 15.285156 747.527344 14.347656 745.773438 C 13.410156 744.019531 12.515625 742.246094 11.664062 740.449219 C 10.816406 738.652344 10.007812 736.832031 9.25 734.996094 C 8.488281 733.160156 7.773438 731.304688 7.101562 729.433594 C 6.433594 727.558594 5.808594 725.671875 5.230469 723.769531 C 4.65625 721.867188 4.125 719.949219 3.640625 718.023438 C 3.15625 716.09375 2.722656 714.152344 2.335938 712.203125 C 1.945312 710.253906 1.605469 708.292969 1.316406 706.328125 C 1.023438 704.359375 0.78125 702.386719 0.585938 700.410156 C 0.390625 698.429688 0.242188 696.449219 0.144531 694.460938 C 0.046875 692.476562 0 690.488281 0 688.5 L 0 121.5 C 0 119.511719 0.046875 117.523438 0.144531 115.539062 C 0.242188 113.550781 0.390625 111.570312 0.585938 109.589844 C 0.78125 107.613281 1.023438 105.640625 1.316406 103.671875 C 1.605469 101.707031 1.945312 99.746094 2.335938 97.796875 C 2.722656 95.847656 3.15625 93.90625 3.640625 91.976562 C 4.125 90.050781 4.65625 88.132812 5.230469 86.230469 C 5.808594 84.328125 6.433594 82.441406 7.101562 80.566406 C 7.773438 78.695312 8.488281 76.839844 9.25 75.003906 C 10.007812 73.167969 10.816406 71.351562 11.664062 69.550781 C 12.515625 67.753906 13.410156 65.980469 14.347656 64.226562 C 15.285156 62.472656 16.265625 60.742188 17.285156 59.035156 C 18.308594 57.332031 19.371094 55.652344 20.476562 54 C 21.582031 52.34375 22.726562 50.71875 23.910156 49.121094 C 25.09375 47.527344 26.316406 45.957031 27.578125 44.421875 C 28.839844 42.882812 30.140625 41.378906 31.472656 39.90625 C 32.808594 38.433594 34.179688 36.992188 35.585938 35.585938 C 36.992188 34.179688 38.433594 32.808594 39.90625 31.472656 C 41.378906 30.140625 42.882812 28.839844 44.421875 27.578125 C 45.957031 26.316406 47.527344 25.09375 49.121094 23.910156 C 50.71875 22.726562 52.34375 21.582031 54 20.476562 C 55.652344 19.371094 57.332031 18.308594 59.035156 17.285156 C 60.742188 16.265625 62.472656 15.285156 64.226562 14.347656 C 65.980469 13.410156 67.753906 12.515625 69.550781 11.664062 C 71.347656 10.816406 73.167969 10.007812 75.003906 9.25 C 76.839844 8.488281 78.695312 7.773438 80.566406 7.101562 C 82.441406 6.433594 84.328125 5.808594 86.230469 5.230469 C 88.132812 4.65625 90.050781 4.125 91.976562 3.640625 C 93.90625 3.15625 95.847656 2.722656 97.796875 2.335938 C 99.746094 1.945312 101.707031 1.605469 103.671875 1.316406 C 105.640625 1.023438 107.613281 0.78125 109.589844 0.585938 C 111.570312 0.390625 113.550781 0.242188 115.539062 0.148438 C 117.523438 0.0507812 119.511719 0 121.5 0 Z M 121.5 0"/><path fill="#FFF" d="M 283.183594 218.320312 C 283.183594 220.238281 283.089844 222.148438 282.902344 224.058594 C 282.714844 225.964844 282.433594 227.859375 282.058594 229.738281 C 281.683594 231.621094 281.21875 233.476562 280.664062 235.3125 C 280.105469 237.148438 279.460938 238.949219 278.726562 240.722656 C 277.996094 242.492188 277.175781 244.222656 276.273438 245.914062 C 275.367188 247.605469 274.382812 249.246094 273.320312 250.839844 C 272.253906 252.433594 271.113281 253.972656 269.898438 255.453125 C 268.679688 256.9375 267.394531 258.355469 266.039062 259.710938 C 264.683594 261.066406 263.265625 262.351562 261.78125 263.570312 C 260.300781 264.785156 258.761719 265.925781 257.167969 266.992188 C 255.574219 268.054688 253.933594 269.039062 252.242188 269.945312 C 250.550781 270.847656 248.820312 271.667969 247.050781 272.398438 C 245.277344 273.132812 243.476562 273.777344 241.640625 274.335938 C 239.804688 274.890625 237.949219 275.355469 236.066406 275.730469 C 234.1875 276.105469 232.292969 276.386719 230.386719 276.574219 C 228.476562 276.761719 226.566406 276.855469 224.648438 276.855469 C 222.730469 276.855469 220.820312 276.761719 218.910156 276.574219 C 217.003906 276.386719 215.109375 276.105469 213.230469 275.730469 C 211.347656 275.355469 209.492188 274.890625 207.65625 274.335938 C 205.820312 273.777344 204.019531 273.132812 202.246094 272.398438 C 200.476562 271.667969 198.746094 270.847656 197.054688 269.945312 C 195.363281 269.039062 193.722656 268.054688 192.128906 266.992188 C 190.535156 265.925781 188.996094 264.785156 187.515625 263.570312 C 186.03125 262.351562 184.613281 261.066406 183.257812 259.710938 C 181.902344 258.355469 180.617188 256.9375 179.398438 255.453125 C 178.183594 253.972656 177.042969 252.433594 175.976562 250.839844 C 174.914062 249.246094 173.929688 247.605469 173.023438 245.914062 C 172.121094 244.222656 171.300781 242.492188 170.570312 240.722656 C 169.835938 238.949219 169.191406 237.148438 168.632812 235.3125 C 168.078125 233.476562 167.613281 231.621094 167.238281 229.738281 C 166.863281 227.859375 166.582031 225.964844 166.394531 224.058594 C 166.207031 222.148438 166.113281 220.238281 166.113281 218.320312 C 166.113281 216.402344 166.207031 214.492188 166.394531 212.582031 C 166.582031 210.675781 166.863281 208.78125 167.238281 206.902344 C 167.613281 205.019531 168.078125 203.164062 168.632812 201.328125 C 169.191406 199.492188 169.835938 197.691406 170.570312 195.921875 C 171.300781 194.148438 172.121094 192.417969 173.023438 190.726562 C 173.929688 189.035156 174.914062 187.394531 175.976562 185.800781 C 177.042969 184.207031 178.183594 182.667969 179.398438 181.1875 C 180.617188 179.703125 181.902344 178.285156 183.257812 176.929688 C 184.613281 175.574219 186.03125 174.289062 187.515625 173.070312 C 188.996094 171.855469 190.535156 170.714844 192.128906 169.648438 C 193.722656 168.585938 195.363281 167.601562 197.054688 166.695312 C 198.746094 165.792969 200.476562 164.976562 202.246094 164.242188 C 204.019531 163.507812 205.820312 162.863281 207.65625 162.304688 C 209.492188 161.75 211.347656 161.285156 213.230469 160.910156 C 215.109375 160.535156 217.003906 160.253906 218.910156 160.066406 C 220.820312 159.878906 222.730469 159.785156 224.648438 159.785156 C 226.566406 159.785156 228.476562 159.878906 230.386719 160.066406 C 232.292969 160.253906 234.1875 160.535156 236.066406 160.910156 C 237.949219 161.285156 239.804688 161.75 241.640625 162.304688 C 243.476562 162.863281 245.277344 163.507812 247.050781 164.242188 C 248.820312 164.976562 250.550781 165.792969 252.242188 166.695312 C 253.933594 167.601562 255.574219 168.585938 257.167969 169.648438 C 258.761719 170.714844 260.300781 171.855469 261.78125 173.070312 C 263.265625 174.289062 264.683594 175.574219 266.039062 176.929688 C 267.394531 178.285156 268.679688 179.703125 269.898438 181.1875 C 271.113281 182.667969 272.253906 184.207031 273.320312 185.800781 C 274.382812 187.394531 275.367188 189.035156 276.273438 190.726562 C 277.175781 192.417969 277.996094 194.148438 278.726562 195.921875 C 279.460938 197.691406 280.105469 199.492188 280.664062 201.328125 C 281.21875 203.164062 281.683594 205.019531 282.058594 206.902344 C 282.433594 208.78125 282.714844 210.675781 282.902344 212.582031 C 283.089844 214.492188 283.183594 216.402344 283.183594 218.320312 Z M 283.183594 218.320312"/><path transform="scale(1.58203)" fill="#FFF" d="M 244.000009 193.999922 L 244.000009 391.999932 M 142.000004 193.999922 L 142.000004 391.999932" stroke="#FFF" stroke-width="66"/><path fill="#FFF" d="M 436.640625 446.132812 C 436.640625 414.492188 457.207031 382.851562 493.59375 382.851562 C 531.5625 382.851562 545.800781 411.328125 545.800781 454.042969 L 545.800781 620.15625 L 650.214844 620.15625 L 650.214844 441.386719 C 650.214844 344.882812 599.589844 300.585938 529.980469 300.585938 C 476.191406 300.585938 449.296875 330.644531 436.640625 351.210938"/></svg>