<svg xmlns="http://www.w3.org/2000/svg" width="810" viewBox="0 0 810 810" height="810" version="1.0"><defs><clipPath id="a"><path d="M 5.25 5 L 798.75 5 L 798.75 805 L 5.25 805 Z M 5.25 5"/></clipPath></defs><path fill="#FFF" d="M-81 -81H891V891H-81z"/><path fill="#FFF" d="M-81 -81H891V891H-81z"/><path fill="#FFF" d="M 432.054688 365.648438 L 432.054688 364.410156 C 431.796875 364.8125 431.523438 365.246094 431.25 365.648438 Z M 432.054688 365.648438"/><g clip-path="url(#a)"><path fill="#FFF" d="M 740.363281 5.164062 L 63.796875 5.164062 C 31.398438 5.164062 5.152344 30.824219 5.152344 62.414062 L 5.152344 747.132812 C 5.152344 778.742188 31.417969 804.371094 63.796875 804.371094 L 740.363281 804.371094 C 772.792969 804.371094 799.039062 778.710938 799.039062 747.132812 L 799.039062 62.414062 C 799.054688 30.792969 772.777344 5.164062 740.363281 5.164062 Z M 245.789062 674.214844 L 125.882812 674.214844 L 125.882812 313.328125 L 245.804688 313.328125 L 245.804688 674.214844 Z M 185.84375 264.03125 L 185.039062 264.03125 C 144.820312 264.03125 118.796875 236.296875 118.796875 201.683594 C 118.796875 166.285156 145.621094 139.335938 186.628906 139.335938 C 227.671875 139.335938 252.890625 166.285156 253.691406 201.683594 C 253.691406 236.3125 227.640625 264.03125 185.84375 264.03125 Z M 678.183594 674.214844 L 558.273438 674.214844 L 558.273438 481.101562 C 558.273438 432.605469 540.925781 399.503906 497.542969 399.503906 C 464.417969 399.503906 444.695312 421.839844 436.003906 443.386719 C 432.839844 451.085938 432.070312 461.835938 432.070312 472.632812 L 432.070312 674.199219 L 312.160156 674.199219 C 312.160156 674.199219 313.734375 347.136719 312.160156 313.296875 L 432.070312 313.296875 L 432.070312 364.394531 C 448.003906 339.808594 476.5 304.796875 540.15625 304.796875 C 619.039062 304.796875 678.214844 356.390625 678.214844 467.234375 Z M 678.183594 674.214844"/></g></svg>